<svg xmlns="http://www.w3.org/2000/svg" viewBox="0 0 448 448">
  <!-- Background -->
  <rect width="448" height="448" rx="48" ry="48" fill="#0b66c2"/>
  
  <!-- Icon -->
  <path fill="white" d="M135.4 416H69V202.2h66.5V416zm-33.2-243c-21.3 0-38.5-17.3-38.5-38.5S80.9 96 102.2 96c21.2 0 38.5 17.3 38.5 38.5 0 21.3-17.2 38.5-38.5 38.5zm282.1 243h-66.4V312c0-24.8-.5-56.7-34.5-56.7-34.6 0-39.9 27-39.9 54.9V416h-66.4V202.2h63.7v29.2h.9c8.9-16.8 30.6-34.5 62.9-34.5 67.2 0 79.7 44.3 79.7 101.9V416z"/>
</svg>
